<mxfile host="app.diagrams.net" modified="2023-12-15T11:48:57.509Z" agent="Mozilla/5.0 (Windows NT 10.0; Win64; x64) AppleWebKit/537.36 (KHTML, like Gecko) Chrome/120.0.0.0 Safari/537.36" version="22.1.9" etag="SScxeVuj4SxiAP8dG0Kz" type="github">
  <diagram name="Сторінка-1" id="pdeUeHBeaKz5XaSnVwxM">
    <mxGraphModel>
      <root>
        <mxCell id="0" />
        <mxCell id="1" parent="0" />
      </root>
    </mxGraphModel>
  </diagram>
</mxfile>
